<svg width="30" height="30" viewBox="0 0 30 30" fill="none" xmlns="http://www.w3.org/2000/svg">
<path d="M5.60757 3.42764C5.09194 3.621 4.69936 4.0253 4.52358 4.54093C4.42983 4.81046 4.42397 5.5546 4.4064 14.7362C4.39468 21.5448 4.41226 24.7675 4.45327 25.0429C4.5353 25.5702 4.67007 25.8749 4.95718 26.1503C5.33218 26.5136 5.63686 26.6308 6.18765 26.6308C6.65054 26.6308 6.68569 26.6191 7.33022 26.2968C7.69936 26.1093 11.1095 24.0937 14.9123 21.8085L21.8263 17.6601L21.8556 21.4745L21.8849 25.2831L22.0255 25.5937C22.2013 25.9862 22.6701 26.4198 23.0802 26.5663C23.3146 26.6483 23.4962 26.6659 23.8654 26.6483C24.4513 26.6132 24.8322 26.4433 25.1837 26.0448C25.6408 25.5233 25.6056 26.4316 25.6056 14.9999C25.6056 3.56827 25.6408 4.47647 25.1837 3.95499C24.8322 3.55655 24.4513 3.38663 23.8654 3.35147C23.4962 3.33389 23.3146 3.35147 23.0802 3.4335C22.6701 3.57999 22.2013 4.01358 22.0255 4.40616L21.8849 4.71671L21.8556 8.5253L21.8263 12.3398L14.9123 8.19132C11.1095 5.90616 7.69936 3.89053 7.33608 3.70303C6.73257 3.40421 6.6271 3.36905 6.2521 3.35733C5.98843 3.34561 5.74233 3.37491 5.60757 3.42764Z" fill="white"/>
</svg>
