<?xml version="1.0" standalone="no"?>
<!DOCTYPE svg PUBLIC "-//W3C//DTD SVG 20010904//EN"
 "http://www.w3.org/TR/2001/REC-SVG-20010904/DTD/svg10.dtd">
<svg version="1.0" xmlns="http://www.w3.org/2000/svg"
 width="512.000000pt" height="512.000000pt" viewBox="0 0 512.000000 512.000000"
 preserveAspectRatio="xMidYMid meet">

<g transform="translate(0.000000,512.000000) scale(0.100000,-0.100000)"
fill="#000000" stroke="none">
<path d="M957 4535 c-88 -33 -155 -102 -185 -190 -16 -46 -17 -173 -20 -1740
-2 -1162 1 -1712 8 -1759 14 -90 37 -142 86 -189 64 -62 116 -82 210 -82 79 0
85 2 195 57 63 32 645 376 1294 766 l1180 708 5 -651 5 -650 24 -53 c30 -67
110 -141 180 -166 40 -14 71 -17 134 -14 100 6 165 35 225 103 78 89 72 -66
72 1885 0 1951 6 1796 -72 1885 -60 68 -125 97 -225 103 -63 3 -94 0 -134 -14
-70 -25 -150 -99 -180 -166 l-24 -53 -5 -650 -5 -651 -1180 708 c-649 390
-1231 734 -1293 766 -103 51 -121 57 -185 59 -45 2 -87 -3 -110 -12z"/>
</g>
</svg>
